<svg width="36" height="40" viewBox="0 0 36 40" fill="none" xmlns="http://www.w3.org/2000/svg">
<path d="M18 18.2C12.552 18.2 11.448 9.94399 11.448 9.94399C10.8 5.64799 12.768 0.799988 17.928 0.799988C23.112 0.799988 25.08 5.64799 24.432 9.94399C24.432 9.94399 23.448 18.2 18 18.2ZM18 24.368L24.528 20C30.264 20 35.376 25.592 35.376 30.872V36.848C35.376 36.848 26.616 39.56 18 39.56C9.24002 39.56 0.624023 36.848 0.624023 36.848V30.872C0.624023 25.472 5.28002 20.12 11.352 20.12L18 24.368Z" fill="#453119"/>
</svg>
