<svg width="48" height="48" viewBox="0 0 48 48" fill="none" xmlns="http://www.w3.org/2000/svg">
<path fill-rule="evenodd" clip-rule="evenodd" d="M28.2462 0.772273L34.2375 1.71783C37.0806 2.16498 39.3871 2.5283 41.1889 3.03601C43.0671 3.56701 44.6178 4.30761 45.8117 5.63977C47.0055 6.97193 47.5249 8.54396 47.7662 10.3838C48 12.1492 48 14.3617 48 17.0912V30.9088C48 33.636 48 35.8462 47.7662 37.6139C47.5249 39.4537 47.0055 41.0234 45.8117 42.3579C44.6178 43.6901 43.0671 44.4307 41.1889 44.9594C39.3871 45.4694 37.0806 45.8327 34.2375 46.2799L28.2462 47.2254C25.7034 47.626 23.5988 47.959 21.92 47.9963C20.1575 48.0359 18.5255 47.7681 17.1618 46.6758C16.0123 45.7559 15.4437 44.5564 15.1434 43.2127H14.0209C11.2345 43.2127 8.95508 43.2127 7.15323 42.9844C5.27508 42.7445 3.64554 42.2275 2.34338 40.9955C1.04123 39.7635 0.494769 38.224 0.241231 36.4424C1.28379e-07 34.7423 0 32.5857 0 29.9446V18.053C0 15.4144 1.28379e-07 13.2601 0.241231 11.5553C0.494769 9.77831 1.04123 8.23654 2.34338 7.00453C3.64554 5.77252 5.27262 5.25549 7.15569 5.01561C8.95262 4.78737 11.232 4.78737 14.0234 4.78737H15.1458C15.4412 3.44357 16.0123 2.24417 17.1643 1.32423C18.5255 0.229629 20.1575 -0.035871 21.92 0.00372107C23.5988 0.0409842 25.7034 0.374024 28.2462 0.774602M14.7692 36.4238C14.7692 37.6255 14.7692 38.7248 14.7963 39.7192H14.1538C11.2 39.7192 9.17169 39.7146 7.648 39.5213C6.176 39.335 5.45723 38.9996 4.95508 38.5245C4.45292 38.0494 4.09846 37.3693 3.90154 35.9766C3.69723 34.535 3.69231 32.6159 3.69231 29.8212V18.1765C3.69231 15.3817 3.69723 13.4627 3.90154 12.0211C4.09846 10.6284 4.45292 9.94832 4.95508 9.47321C5.45723 8.99811 6.176 8.66274 7.648 8.47643C9.17169 8.28312 11.2 8.27846 14.1538 8.27846H14.7963C14.7692 9.27292 14.7692 10.3722 14.7692 11.5739V36.4238ZM21.8314 3.49248C20.4948 3.46221 19.9286 3.68346 19.5495 3.98622C19.1705 4.28898 18.848 4.78272 18.6609 6.03569C18.464 7.33291 18.4615 9.10058 18.4615 11.7067V36.291C18.4615 38.8971 18.4665 40.6648 18.6609 41.9643C18.848 43.215 19.1705 43.7087 19.5495 44.0115C19.9286 44.3142 20.4948 44.5332 21.8314 44.5029C23.2172 44.4726 25.0609 44.1861 27.776 43.7576L33.5114 42.854C36.5022 42.3812 38.5797 42.0505 40.1354 41.6127C41.6418 41.1888 42.4394 40.7183 42.9957 40.0989C43.552 39.477 43.9065 38.6572 44.1034 37.1807C44.3052 35.6576 44.3077 33.664 44.3077 30.7924V17.2053C44.3077 14.3337 44.3052 12.3401 44.1034 10.817C43.9065 9.34046 43.5495 8.51835 42.9957 7.89885C42.4394 7.27935 41.6418 6.8089 40.1354 6.38503C38.5797 5.94719 36.5022 5.61648 33.5089 5.1437L27.776 4.24007C25.0609 3.81155 23.2172 3.52509 21.8314 3.49481" fill="#421010"/>
</svg>
